<svg width="54" height="54" viewBox="0 0 54 54" fill="none" xmlns="http://www.w3.org/2000/svg">
<path d="M13.6667 26.126V40.3334H27.8741L24.9111 37.3704H16.6296V29.0889L13.6667 26.126Z" fill="#A53594"/>
<path d="M51.9926 48.1704L47.7407 43.8593V47.7408H6.25924V41.5927H9.2222V39.2223H6.25924V29.3704H9.2222V27.0001H6.25924V17.5186H9.2222V15.1482H6.25924V6.86674L29.8741 30.3482V26.1704L5.82961 2.24452C5.62239 2.03559 5.35765 1.8931 5.06914 1.83522C4.78062 1.77734 4.48141 1.80669 4.20964 1.91953C3.93787 2.03237 3.70586 2.22358 3.54319 2.4688C3.38052 2.71401 3.29456 3.00211 3.29628 3.29637V49.2223C3.29628 49.6152 3.45236 49.992 3.73019 50.2699C4.00802 50.5477 4.38484 50.7038 4.77776 50.7038H50.9407C51.235 50.7055 51.5231 50.6195 51.7683 50.4569C52.0135 50.2942 52.2047 50.0622 52.3176 49.7904C52.4304 49.5186 52.4597 49.2194 52.4019 48.9309C52.344 48.6424 52.2015 48.3777 51.9926 48.1704Z" fill="#A53594"/>
<path d="M35.8889 44.7779H41.8148C42.6006 44.7779 43.3543 44.4657 43.9099 43.91C44.4656 43.3544 44.7778 42.6007 44.7778 41.8149V13.2223L41.3704 6.95565C41.1068 6.49908 40.7263 6.12109 40.2679 5.86067C39.8096 5.60025 39.2901 5.46683 38.7629 5.47416C38.2239 5.47844 37.6962 5.62969 37.2368 5.91163C36.7773 6.19357 36.4035 6.59551 36.1555 7.07416L32.9259 13.2519V41.8149C32.9259 42.6007 33.2381 43.3544 33.7937 43.91C34.3494 44.4657 35.103 44.7779 35.8889 44.7779ZM35.8889 13.9631L38.7629 8.37787L41.8148 13.9779V35.889H35.8889V13.9631ZM35.8889 38.3038H41.8148V41.9186H35.8889V38.3038Z" fill="#A53594"/>
</svg>
