<svg width="45" height="56" viewBox="0 0 45 56" fill="none" xmlns="http://www.w3.org/2000/svg">
<path d="M14.9427 41.3334H22.7969M1.85242 6.66671V49.3334C1.85242 50.7479 2.40408 52.1044 3.38604 53.1046C4.368 54.1048 5.69983 54.6667 7.08853 54.6667H38.5052C39.8939 54.6667 41.2257 54.1048 42.2077 53.1046C43.1896 52.1044 43.7413 50.7479 43.7413 49.3334V18.2454C43.7412 17.5349 43.6018 16.8315 43.3311 16.1767C43.0605 15.5218 42.6641 14.9287 42.1652 14.432L30.5411 2.85337C29.5629 1.87913 28.2491 1.33355 26.881 1.33337H7.08853C5.69983 1.33337 4.368 1.89528 3.38604 2.89547C2.40408 3.89566 1.85242 5.25222 1.85242 6.66671V6.66671ZM14.9427 30.6667H30.651H14.9427Z" stroke="#A53594" stroke-width="2.5" stroke-linecap="round" stroke-linejoin="round"/>
</svg>
