<?xml version="1.0" encoding="utf-8"?>
<!-- Generator: Adobe Illustrator 24.3.0, SVG Export Plug-In . SVG Version: 6.00 Build 0)  -->
<svg version="1.1" id="Layer_1" xmlns="http://www.w3.org/2000/svg" xmlns:xlink="http://www.w3.org/1999/xlink" x="0px" y="0px"
	 viewBox="0 0 1200 657.6" style="enable-background:new 0 0 1200 657.6;" xml:space="preserve">
<style type="text/css">
	.st0{fill:#FFFFFF;}
</style>
<g id="Layer_2_1_">
	<path class="st0" d="M6.4,598.4h15.9c13.2,0,22.4,8.5,22.4,21.9s-9,22.7-22.4,22.7H6.4V598.4z M10.1,639.9h11.7
		c12.8,0,19.1-8.3,19.1-19.3c0-9.8-5.7-18.9-19.1-18.9H10.1V639.9z"/>
	<path class="st0" d="M93.7,598.4v44.6h-3.7v-44.6H93.7z"/>
	<path class="st0" d="M179,643.1h-3.1c-0.4-2.3-0.6-4.7-0.5-7.1c-1.8,3.1-5.5,7.7-15.6,7.7c-13.9,0-21-9.8-21-22.4
		c0-13.3,7.6-23.3,21.7-23.3c10.4,0,17.3,5,18.8,13.2h-3.7c-2.1-6.3-6.8-10.1-15.2-10.1c-12.1,0-17.6,8.7-17.6,19.9
		c0,10.2,5.3,19.5,17.1,19.5s15.5-7.3,15.5-17.1v-0.5h-15.7v-3.2h19.2L179,643.1z"/>
	<path class="st0" d="M229.7,598.4v44.6H226v-44.6H229.7z"/>
	<path class="st0" d="M288.1,601.6h-16.2v-3.2h36.3v3.2h-16.3v41.4h-3.8L288.1,601.6z"/>
	<path class="st0" d="M349.3,627.6l-6.1,15.4h-3.8l17.7-44.6h4.5l18.5,44.6h-4.1l-6.3-15.4H349.3z M368.4,624.4
		c-5.3-13.3-8.1-19.6-9.1-22.6l0,0c-1.2,3.4-4.3,11.3-8.6,22.6H368.4z"/>
	<path class="st0" d="M423.1,598.4h3.7v41.4h26l-0.7,3.2h-29V598.4z"/>
	<path class="st0" d="M547.9,631.1c1.5,5.9,5.7,9.4,13.7,9.4c8.9,0,12.2-4.1,12.2-8.9s-2.4-8.1-13-10.6
		c-10.2-2.4-14.6-5.4-14.6-11.9c0-5.9,4.6-11.3,15-11.3c10.6,0,15.1,6,15.7,11.4H573c-1.1-4.8-4.5-8.2-12.1-8.2c-7,0-10.8,3-10.8,8
		c0,5,3.2,6.8,12.1,8.9c13.6,3.1,15.6,8.2,15.6,13.5c0,6.6-5.2,12.2-16.3,12.2c-12.1,0-16.5-6.5-17.4-12.4L547.9,631.1z"/>
	<path class="st0" d="M663.6,620.4c0,12.2-7.1,23.3-21.9,23.3c-13.6,0-21.5-10.1-21.5-23s7.7-22.9,22-22.9
		C655.4,597.8,663.6,607.4,663.6,620.4z M624.2,620.6c0,10.3,6.1,19.9,17.7,19.9c12.5,0,17.7-9.4,17.7-20c0-10.6-5.9-19.5-17.6-19.5
		C629.6,601,624.2,610.5,624.2,620.6z"/>
	<path class="st0" d="M708.7,598.4h3.7v41.4h25.9l-0.7,3.2h-29V598.4z"/>
	<path class="st0" d="M782.3,598.4v27c0,11.8,7.2,14.9,14.2,14.9c8.1,0,14.2-3.1,14.2-14.9v-27h3.8v26.8c0,14-8,18.3-18,18.3
		c-9.5,0-17.7-4.8-17.7-17.7v-27.4H782.3z"/>
	<path class="st0" d="M872.5,601.6h-16.2v-3.2h36.3v3.2h-16.3v41.4h-3.8V601.6z"/>
	<path class="st0" d="M938,598.4v44.6h-3.7v-44.6H938z"/>
	<path class="st0" d="M1026.6,620.4c0,12.2-7.1,23.3-21.9,23.3c-13.6,0-21.5-10.1-21.5-23s7.7-22.9,22-22.9
		C1018.3,597.8,1026.6,607.4,1026.6,620.4z M987.1,620.6c0,10.3,6.1,19.9,17.7,19.9c12.5,0,17.7-9.4,17.7-20
		c0-10.6-5.9-19.5-17.6-19.5C992.5,601,987.1,610.5,987.1,620.6L987.1,620.6z"/>
	<path class="st0" d="M1071.7,643.1v-44.6h5.5c7.5,10.6,25.2,35.6,28.2,40.5l0,0c-0.4-6.4-0.4-13-0.4-20.3v-20.2h3.9v44.6h-5.1
		c-7.2-10.3-25.1-36.3-28.6-41.2l0,0c0.3,5.9,0.3,12.4,0.3,20.5v20.7H1071.7z"/>
	<path class="st0" d="M1157.3,631.1c1.5,5.9,5.7,9.4,13.7,9.4c8.9,0,12.2-4.1,12.2-8.9s-2.4-8.1-13.1-10.6
		c-10.2-2.4-14.6-5.4-14.6-11.9c0-5.9,4.6-11.3,15-11.3s15.1,6,15.7,11.4h-3.9c-1.1-4.8-4.5-8.2-12.1-8.2c-7,0-10.8,3-10.8,8
		c0,5,3.2,6.8,12.1,8.9c13.6,3.1,15.6,8.2,15.6,13.5c0,6.6-5.2,12.2-16.4,12.2c-12.1,0-16.5-6.5-17.4-12.4L1157.3,631.1z"/>
</g>
<g id="Layer_1_1_">
	<path class="st0" d="M764.2,27.4c-9.2-10.3-22.4-16.3-36.2-16.4c-28.3,0-51.3,25-51.3,55.9v155c0,0.7,0,1.4,0,2.1
		c-0.1,3.7-0.3,7.4-0.3,11.1v13.6c0,41.3-33.4,74.8-74.7,74.8s-74.8-33.4-74.8-74.7c0,0,0-0.1,0-0.1v-20.4c0-1.8,0-3.8,0-6.5v-155
		c0-30.9-23-55.9-51.3-55.9h-0.3c-28.3,0-51.4,25.1-51.3,56l0.3,154.8c0,60.1,15.6,110.4,46.8,150.9s74.7,60.7,130.6,60.7
		c56.4,0,100.1-19.5,131.1-58.4c30.9-39,46.4-90,46.4-153.3v-155C779.3,52.2,773.9,38.2,764.2,27.4z"/>
	<path class="st0" d="M270.9,40.4L193,238.6c-1.6,4.1-6.2,6.1-10.2,4.5c-2-0.8-3.7-2.4-4.5-4.5L100.2,40.4
		C90.8,16.3,63,4.1,38.2,13.2s-37.5,36-28.1,60.1l0.3,0.8l130.1,328.9c9.4,24.1,37.2,36.2,62.1,27.1c12.7-4.6,22.9-14.5,27.9-27.1
		L360.7,74c9.6-24-2.7-51-27.5-60.2C308.4,4.6,280.5,16.5,270.9,40.4"/>
	<path class="st0" d="M1132.5,120.3H886.8c-30.2,0-54.7-24.5-54.7-54.7l0,0c0-30.2,24.5-54.7,54.7-54.7h245.7
		c30.2,0,54.7,24.5,54.7,54.7l0,0C1187.2,95.8,1162.7,120.3,1132.5,120.3z"/>
	<path class="st0" d="M993.9,276.3H886.8c-30.2,0-54.7-24.5-54.7-54.7v0c0-30.2,24.5-54.7,54.7-54.7h107.1
		c30.2,0,54.7,24.5,54.7,54.7v0C1048.6,251.8,1024.1,276.3,993.9,276.3z"/>
	<path class="st0" d="M1132.5,432.7H886.8c-30.2,0-54.7-24.5-54.7-54.7v0c0-30.2,24.5-54.7,54.7-54.7h245.7
		c30.2,0,54.7,24.5,54.7,54.7v0C1187.2,408.2,1162.7,432.7,1132.5,432.7z"/>
</g>
</svg>
