<svg width="313" height="1625" viewBox="0 0 313 1625" fill="none" xmlns="http://www.w3.org/2000/svg">
<path d="M174.928 0L318.392 0L318.392 468.587C322.616 473.766 326.183 478.218 329 481.798L329 581.579C326.78 584.136 323.217 587.545 318.392 591.341L318.392 1625H0.145172C-2.88574 1455.09 41.5677 1420.88 131.485 1277.19C221.402 1133.51 186.042 1073.07 101.176 916.842C16.3101 760.614 68.7517 703.782 94.1037 670.526C131.485 621.491 201.196 632.895 252.722 621.491C282.852 614.823 305.282 601.655 318.392 591.341L318.392 468.587C294.589 439.404 249.933 387.13 201.196 337.544C129.464 264.561 160.784 127.719 179.98 93.5088C195.336 66.1404 183.011 19.7661 174.928 0Z" fill="url(#paint0_linear_17_8)"/>
<defs>
<linearGradient id="paint0_linear_17_8" x1="329" y1="-24.8264" x2="-54.6191" y2="1802.38" gradientUnits="userSpaceOnUse">
<stop stop-color="#3C3795"/>
<stop offset="0.463542" stop-color="#A53594"/>
<stop offset="1" stop-color="#DA2128"/>
</linearGradient>
</defs>
</svg>
